Coordinates
version=1
nRows=24
nColumns=38
inDegrees=no

Units are S.I. units (second, meters, Newtons, ...)
If the header above contains a line with 'inDegrees', this indicates whether rotational values are in degrees (yes) or radians (no).

endheader
time	pelvis_tilt	pelvis_list	pelvis_rotation	pelvis_tx	pelvis_ty	pelvis_tz	hip_flexion_r	hip_adduction_r	hip_rotation_r	knee_angle_r	ankle_angle_r	subtalar_angle_r	mtp_angle_r	hip_flexion_l	hip_adduction_l	hip_rotation_l	knee_angle_l	ankle_angle_l	subtalar_angle_l	mtp_angle_l	lumbar_extension	lumbar_bending	lumbar_rotation	arm_flex_r	arm_add_r	arm_rot_r	elbow_flex_r	pro_sup_r	wrist_flex_r	wrist_dev_r	arm_flex_l	arm_add_l	arm_rot_l	elbow_flex_l	pro_sup_l	wrist_flex_l	wrist_dev_l
5	2.93234	1.39412	-1.26589	0.654295	0.280905	0.942973	0.0432521	0.0132987	-0.133206	0.417935	-0.391888	0	0	-0.086698	-0.117125	-0.0448027	0.0928868	-0.524926	0	0	-0.345027	0.0674694	0.0260763	0.860243	-0.759547	0.725951	1.08713	0.18549	0	0	1.06182	-0.524617	1.08424	0.934921	0.143259	0	0
5.01	2.92743	1.39275	-1.26081	0.65446	0.27889	0.942125	0.0516824	0.0142944	-0.130846	0.431436	-0.395848	0	0	-0.0772159	-0.119326	-0.0399131	0.10735	-0.530716	0	0	-0.354246	0.0692842	0.0265483	0.868506	-0.759351	0.727112	1.08686	0.179205	0	0	1.06994	-0.525618	1.08603	0.935444	0.141116	0	0
5.02	2.91429	1.39607	-1.24722	0.654556	0.27689	0.940873	0.0662558	0.0144522	-0.129108	0.447101	-0.390969	0	0	-0.0598398	-0.12166	-0.0358613	0.127991	-0.519122	0	0	-0.358284	0.0711967	0.0269097	0.873068	-0.758594	0.723632	1.08741	0.18322	0	0	1.07624	-0.525663	1.08576	0.935288	0.142051	0	0
5.03	2.90367	1.39937	-1.23605	0.654618	0.274795	0.93961	0.0801757	0.0133889	-0.128496	0.461436	-0.387071	0	0	-0.0425525	-0.123382	-0.0322048	0.149055	-0.507627	0	0	-0.363069	0.0728015	0.0272297	0.877515	-0.757974	0.719582	1.08846	0.186863	0	0	1.08263	-0.525674	1.08508	0.935356	0.143067	0	0
5.04	2.89685	1.40258	-1.22858	0.654708	0.272607	0.938329	0.0934965	0.01106	-0.129525	0.474978	-0.383709	0	0	-0.0258717	-0.124372	-0.0287823	0.169532	-0.496601	0	0	-0.368562	0.0735734	0.0273623	0.882286	-0.757244	0.715548	1.08926	0.189755	0	0	1.08952	-0.525745	1.08489	0.935341	0.144123	0	0
5.05	2.89332	1.40528	-1.22433	0.654875	0.27033	0.937011	0.105794	0.00852	-0.131613	0.487566	-0.381303	0	0	-0.0106554	-0.124909	-0.0251507	0.188	-0.48828	0	0	-0.375024	0.0737546	0.0272711	0.888027	-0.756192	0.712416	1.08945	0.191762	0	0	1.09704	-0.52604	1.0853	0.93514	0.144567	0	0
5.06	2.88631	1.41022	-1.21648	0.655108	0.268054	0.935416	0.121407	0.00565558	-0.134687	0.501832	-0.378254	0	0	0.00809146	-0.125408	-0.0225737	0.208612	-0.477711	0	0	-0.379302	0.0734848	0.0269418	0.892609	-0.754923	0.707635	1.08999	0.194857	0	0	1.10436	-0.526909	1.08576	0.935878	0.145255	0	0
5.07	2.87787	1.41569	-1.20713	0.655383	0.265699	0.933658	0.138349	0.00270422	-0.137912	0.517148	-0.375066	0	0	0.0278594	-0.125996	-0.0204614	0.229376	-0.467926	0	0	-0.383032	0.0730832	0.0265887	0.897441	-0.75351	0.703139	1.09002	0.198394	0	0	1.11212	-0.527502	1.08693	0.936069	0.145878	0	0
5.08	2.8683	1.42148	-1.19653	0.655664	0.263259	0.931742	0.156423	-0.000245806	-0.140712	0.533886	-0.371037	0	0	0.0486909	-0.126552	-0.0187487	0.251088	-0.458303	0	0	-0.386423	0.0726591	0.0263343	0.902289	-0.752038	0.698703	1.0897	0.201899	0	0	1.12037	-0.527561	1.08894	0.935473	0.1463	0	0
5.09	2.85732	1.42711	-1.18467	0.655935	0.260762	0.929719	0.174878	-0.00286342	-0.142694	0.551653	-0.365945	0	0	0.0699258	-0.127304	-0.0177309	0.273609	-0.448588	0	0	-0.390034	0.0723157	0.0263889	0.907292	-0.750576	0.694095	1.08906	0.206007	0	0	1.12859	-0.527137	1.09062	0.934445	0.146736	0	0
5.1	2.84312	1.43264	-1.16967	0.656176	0.258296	0.927627	0.193339	-0.00539003	-0.144423	0.569455	-0.360803	0	0	0.0914007	-0.128468	-0.0173408	0.296574	-0.438966	0	0	-0.393934	0.0723216	0.0266497	0.912323	-0.749548	0.689363	1.08895	0.210391	0	0	1.13625	-0.527077	1.09134	0.934462	0.147618	0	0
5.11	2.81769	1.44006	-1.14372	0.656415	0.255999	0.925302	0.214342	-0.0076812	-0.146074	0.587888	-0.351142	0	0	0.116033	-0.130326	-0.0180539	0.322001	-0.42109	0	0	-0.395091	0.0728049	0.0270092	0.913262	-0.746296	0.677811	1.08856	0.231038	0	0	1.14043	-0.526762	1.08664	0.934676	0.15547	0	0
5.12	2.81185	1.44012	-1.13724	0.656634	0.253382	0.923513	0.225456	-0.00941949	-0.148362	0.602093	-0.350623	0	0	0.129633	-0.132293	-0.0165061	0.340694	-0.418198	0	0	-0.405755	0.0739451	0.0281377	0.921583	-0.747046	0.677491	1.08939	0.227023	0	0	1.14971	-0.526819	1.08833	0.935279	0.152937	0	0
5.13	2.7934	1.4433	-1.11804	0.656838	0.250803	0.921329	0.241694	-0.0117023	-0.152162	0.619609	-0.347733	0	0	0.150041	-0.13499	-0.0171471	0.366364	-0.410083	0	0	-0.412741	0.0754085	0.0293321	0.92729	-0.747818	0.673655	1.0916	0.224786	0	0	1.15743	-0.526918	1.08843	0.936703	0.152361	0	0
5.14	2.75498	1.45125	-1.07926	0.657031	0.248369	0.918619	0.264574	-0.0145752	-0.155456	0.638909	-0.338564	0	0	0.176999	-0.137261	-0.0159253	0.394154	-0.390152	0	0	-0.413276	0.0766291	0.0307394	0.93042	-0.74788	0.667657	1.0931	0.229438	0	0	1.16171	-0.525868	1.08436	0.936799	0.157837	0	0
5.15	2.73377	1.45491	-1.0582	0.657351	0.24574	0.916126	0.282139	-0.0176294	-0.158312	0.656652	-0.335396	0	0	0.197209	-0.139405	-0.0147176	0.418099	-0.381518	0	0	-0.41971	0.0775911	0.0320092	0.937497	-0.7474	0.665261	1.09404	0.231286	0	0	1.16796	-0.526499	1.08161	0.938076	0.159898	0	0
5.16	2.71415	1.45831	-1.03909	0.657729	0.243179	0.913521	0.299788	-0.0204388	-0.160632	0.674947	-0.331939	0	0	0.216794	-0.141676	-0.0148974	0.441891	-0.372438	0	0	-0.426319	0.0779511	0.0335412	0.944455	-0.746809	0.66284	1.09459	0.233132	0	0	1.17462	-0.527219	1.08003	0.939414	0.16153	0	0
5.17	2.71736	1.45822	-1.04282	0.658147	0.240529	0.911133	0.312687	-0.0231617	-0.162736	0.692664	-0.333985	0	0	0.230225	-0.143268	-0.0152019	0.462171	-0.373883	0	0	-0.437902	0.0774481	0.0351819	0.953539	-0.746807	0.662115	1.09477	0.229302	0	0	1.18416	-0.528171	1.08208	0.940696	0.159662	0	0
5.18	2.71285	1.4607	-1.0386	0.658548	0.23809	0.908413	0.328943	-0.0266384	-0.164365	0.712105	-0.330193	0	0	0.247162	-0.144273	-0.0162647	0.484255	-0.36546	0	0	-0.446059	0.0762765	0.0362293	0.959701	-0.745851	0.657554	1.0946	0.229143	0	0	1.19148	-0.529128	1.08155	0.942355	0.161063	0	0
5.19	2.71157	1.46318	-1.03729	0.658906	0.235718	0.905616	0.344868	-0.0306225	-0.165541	0.731671	-0.325936	0	0	0.264353	-0.145112	-0.0183504	0.507146	-0.357045	0	0	-0.45422	0.0747396	0.0369376	0.965449	-0.74484	0.653621	1.09442	0.229734	0	0	1.19877	-0.530025	1.08145	0.94397	0.162093	0	0
5.2	2.70471	1.46606	-1.03036	0.659248	0.233457	0.902695	0.361289	-0.0341129	-0.16605	0.751195	-0.320593	0	0	0.28269	-0.146498	-0.0205005	0.531237	-0.347772	0	0	-0.46167	0.0736387	0.0377013	0.970887	-0.744096	0.650925	1.09507	0.232448	0	0	1.20559	-0.531296	1.08148	0.94602	0.164023	0	0
5.21	2.69198	1.4684	-1.01751	0.659595	0.231243	0.899706	0.377042	-0.0362092	-0.165856	0.769614	-0.315501	0	0	0.301128	-0.148732	-0.0216716	0.555737	-0.338857	0	0	-0.469511	0.0732931	0.0385341	0.976598	-0.743573	0.649642	1.09638	0.237602	0	0	1.21178	-0.53269	1.08006	0.948684	0.165515	0	0
5.22	2.67193	1.47073	-0.997199	0.659896	0.229056	0.896571	0.392954	-0.0373703	-0.165327	0.787389	-0.310527	0	0	0.320316	-0.151278	-0.021591	0.580759	-0.330006	0	0	-0.476881	0.0737651	0.0393555	0.982097	-0.743129	0.647573	1.09768	0.242503	0	0	1.21739	-0.534058	1.07801	0.951328	0.166943	0	0
5.23	2.62658	1.47599	-0.951263	0.660097	0.227055	0.893036	0.413207	-0.0385611	-0.164867	0.806187	-0.298761	0	0	0.344321	-0.153536	-0.020281	0.607669	-0.311935	0	0	-0.47935	0.0748102	0.0396197	0.985067	-0.741326	0.642418	1.09791	0.253513	0	0	1.22002	-0.534761	1.07269	0.952964	0.172136	0	0
